<svg width="132" height="40" viewBox="0 0 132 40" fill="none" xmlns="http://www.w3.org/2000/svg">
<g clip-path="url(#clip0_1005_4736)">
<path d="M121.488 7.92927e-06H10.5176C10.1131 7.92927e-06 9.71344 7.92932e-06 9.31001 0.00200792C8.9723 0.00400792 8.63728 0.0098179 8.29632 0.0147079C7.55562 0.0226097 6.81665 0.0816839 6.08585 0.191417C5.35607 0.30354 4.64915 0.514922 3.98901 0.818415C3.32967 1.12448 2.72721 1.52217 2.2035 1.99707C1.67703 2.47064 1.23818 3.01801 0.903815 3.61816C0.568532 4.2171 0.336045 4.85893 0.214385 5.52147C0.0915684 6.18317 0.0254795 6.85251 0.0167118 7.52346C0.00647513 7.83006 0.0053941 8.13768 0 8.44432V31.5585C0.0053941 31.869 0.00647513 32.1698 0.0167118 32.4804C0.0254822 33.1513 0.0915711 33.8206 0.214385 34.4823C0.335709 35.1452 0.56821 35.7874 0.903815 36.3866C1.23802 36.9848 1.67694 37.53 2.2035 38.0009C2.72523 38.4779 3.32807 38.8759 3.98901 39.1796C4.64915 39.4839 5.35599 39.6965 6.08585 39.8104C6.81677 39.9192 7.55566 39.9783 8.29632 39.9872C8.63728 39.994 8.9723 39.9979 9.31001 39.9979C9.71343 39.9999 10.1131 39.9999 10.5176 39.9999H121.488C121.885 39.9999 122.288 39.9999 122.684 39.9979C123.02 39.9979 123.365 39.994 123.701 39.9872C124.44 39.9788 125.178 39.9197 125.907 39.8104C126.639 39.6957 127.349 39.4831 128.012 39.1796C128.672 38.8757 129.275 38.4777 129.796 38.0009C130.321 37.5281 130.761 36.9833 131.099 36.3866C131.433 35.787 131.663 35.1448 131.782 34.4823C131.905 33.8205 131.974 33.1514 131.987 32.4804C131.991 32.1698 131.991 31.869 131.991 31.5585C132 31.1952 132 30.8339 132 30.4647V9.53611C132 9.1699 132 8.80662 131.991 8.44432C131.991 8.13768 131.991 7.83006 131.987 7.52342C131.974 6.85241 131.905 6.18322 131.782 5.52143C131.662 4.85927 131.432 4.2175 131.099 3.61812C130.419 2.4152 129.339 1.43603 128.012 0.818325C127.349 0.515574 126.639 0.304247 125.907 0.191327C125.178 0.0811105 124.44 0.0220156 123.701 0.0145679C123.365 0.0096879 123.02 0.00382792 122.684 0.00187792C122.288 -0.00012207 121.885 -0.00012207 121.488 -0.00012207V7.92927e-06Z" fill="#A6A6A6"/>
<path d="M9.28624 39.0677C8.94998 39.0677 8.62184 39.0638 8.28822 39.057C7.59709 39.0489 6.90758 38.9946 6.22533 38.8944C5.58917 38.7954 4.97291 38.6113 4.39686 38.3481C3.8261 38.0871 3.30552 37.7449 2.85506 37.3345C2.39808 36.929 2.01762 36.4587 1.72877 35.9421C1.43673 35.4223 1.23462 34.865 1.12948 34.2898C1.01594 33.6717 0.954513 33.0468 0.945723 32.4203C0.938726 32.21 0.929565 31.5099 0.929565 31.5099V8.47726C0.929565 8.47726 0.939322 7.78788 0.945778 7.58535C0.954194 6.95988 1.01527 6.33589 1.12847 5.71879C1.2338 5.14201 1.43606 4.58315 1.72826 4.06157C2.01605 3.54541 2.3944 3.07471 2.84862 2.66773C3.30234 2.25689 3.82459 1.91288 4.39632 1.64827C4.97104 1.38593 5.58614 1.2031 6.22102 1.10593C6.9055 1.00479 7.59741 0.950113 8.29093 0.94235L9.28678 0.930176H122.708L123.716 0.942838C124.403 0.950216 125.088 1.00441 125.767 1.10495C126.408 1.20335 127.029 1.38744 127.611 1.65119C128.756 2.18446 129.688 3.02815 130.276 4.064C130.564 4.58199 130.763 5.13628 130.867 5.70808C130.981 6.33024 131.045 6.95914 131.058 7.58974C131.062 7.87211 131.062 8.17541 131.062 8.47726C131.07 8.85116 131.07 9.20704 131.07 9.56584V30.433C131.07 30.7952 131.07 31.1487 131.062 31.505C131.062 31.8293 131.062 32.1263 131.057 32.432C131.045 33.0513 130.981 33.669 130.869 34.28C130.766 34.8594 130.565 35.421 130.273 35.9451C129.982 36.456 129.604 36.9223 129.152 37.3267C128.701 37.7393 128.18 38.0836 127.607 38.3462C127.028 38.6115 126.407 38.7963 125.767 38.8944C125.084 38.9951 124.395 39.0494 123.704 39.057C123.38 39.0638 123.042 39.0677 122.713 39.0677L121.517 39.0697L9.28624 39.0677Z" fill="black"/>
<path d="M24.7515 20.3006C24.7622 19.4659 24.9838 18.6475 25.3955 17.9216C25.8073 17.1956 26.3958 16.5857 27.1064 16.1485C26.655 15.5034 26.0594 14.9724 25.3671 14.5979C24.6748 14.2233 23.9047 14.0155 23.118 13.9908C21.44 13.8146 19.8132 14.9957 18.9581 14.9957C18.0864 14.9957 16.7698 14.0083 15.3521 14.0375C14.4351 14.0672 13.5414 14.334 12.758 14.8121C11.9747 15.2901 11.3285 15.9631 10.8823 16.7654C8.94971 20.1138 10.3913 25.0349 12.2426 27.7415C13.1688 29.0668 14.2514 30.5473 15.6678 30.4948C17.0539 30.4372 17.5716 29.6103 19.2447 29.6103C20.9023 29.6103 21.388 30.4948 22.8332 30.4614C24.3205 30.4372 25.2576 29.1302 26.1513 27.7923C26.8168 26.8479 27.3289 25.8042 27.6687 24.6997C26.8046 24.334 26.0672 23.7218 25.5484 22.9395C25.0297 22.1572 24.7525 21.2394 24.7515 20.3006Z" fill="white"/>
<path d="M22.0217 12.2108C22.8327 11.2366 23.2322 9.98439 23.1355 8.72015C21.8965 8.85037 20.7521 9.44293 19.9301 10.3798C19.5283 10.8374 19.2205 11.3699 19.0244 11.9466C18.8283 12.5234 18.7477 13.1332 18.7872 13.7412C19.4069 13.7475 20.02 13.6131 20.5803 13.348C21.1406 13.083 21.6334 12.6941 22.0217 12.2108Z" fill="white"/>
<path d="M42.2724 27.1394H37.5423L36.4064 30.4959H34.403L38.8832 18.0779H40.9647L45.445 30.4959H43.4073L42.2724 27.1394ZM38.0322 25.5906H41.7816L39.9333 20.1433H39.8816L38.0322 25.5906Z" fill="white"/>
<path d="M55.1207 25.9696C55.1207 28.7831 53.6159 30.5907 51.3451 30.5907C50.7698 30.6208 50.1977 30.4882 49.6943 30.208C49.1909 29.9279 48.7764 29.5115 48.4985 29.0067H48.4555V33.491H46.5984V21.4422H48.396V22.9481H48.4301C48.7209 22.4456 49.1423 22.0314 49.6496 21.7496C50.1569 21.4677 50.731 21.3288 51.3109 21.3475C53.6071 21.3475 55.1207 23.1639 55.1207 25.9696ZM53.2119 25.9696C53.2119 24.1366 52.2653 22.9315 50.821 22.9315C49.4021 22.9315 48.4477 24.162 48.4477 25.9696C48.4477 27.7938 49.4021 29.0155 50.821 29.0155C52.2653 29.0155 53.2119 27.8192 53.2119 25.9696Z" fill="white"/>
<path d="M65.0786 25.9696C65.0786 28.783 63.5738 30.5907 61.3029 30.5907C60.7276 30.6208 60.1556 30.4882 59.6521 30.208C59.1487 29.9279 58.7342 29.5115 58.4563 29.0067H58.4133V33.491H56.5562V21.4422H58.3538V22.9481H58.3879C58.6787 22.4456 59.1001 22.0314 59.6074 21.7496C60.1147 21.4677 60.6888 21.3288 61.2687 21.3475C63.565 21.3475 65.0786 23.1639 65.0786 25.9696ZM63.1697 25.9696C63.1697 24.1366 62.2231 22.9315 60.7788 22.9315C59.3599 22.9315 58.4055 24.1619 58.4055 25.9696C58.4055 27.7938 59.3599 29.0155 60.7788 29.0155C62.2231 29.0155 63.1698 27.8192 63.1698 25.9696H63.1697Z" fill="white"/>
<path d="M71.6599 27.0359C71.7975 28.2674 72.9929 29.0759 74.6265 29.0759C76.1919 29.0759 77.318 28.2673 77.318 27.157C77.318 26.1931 76.6388 25.616 75.0306 25.2205L73.4223 24.8328C71.1437 24.282 70.0858 23.2156 70.0858 21.4851C70.0858 19.3425 71.9517 17.8708 74.6012 17.8708C77.2233 17.8708 79.0209 19.3425 79.0814 21.4851H77.2067C77.0945 20.2458 76.0708 19.4978 74.5748 19.4978C73.0788 19.4978 72.0551 20.2546 72.0551 21.3562C72.0551 22.2341 72.7089 22.7507 74.3084 23.1462L75.6756 23.4821C78.2216 24.0847 79.2795 25.1081 79.2795 26.9245C79.2795 29.2478 77.4302 30.7028 74.4889 30.7028C71.7369 30.7028 69.8789 29.2819 69.7589 27.0358L71.6599 27.0359Z" fill="white"/>
<path d="M83.2874 19.2996V21.4421H85.0079V22.9138H83.2874V27.905C83.2874 28.6804 83.6319 29.0417 84.3882 29.0417C84.5925 29.0382 84.7964 29.0238 84.9991 28.9987V30.4616C84.6591 30.5252 84.3135 30.554 83.9676 30.5476C82.1359 30.5476 81.4216 29.8591 81.4216 28.1032V22.9138H80.1061V21.4421H81.4215V19.2996H83.2874Z" fill="white"/>
<path d="M86.0042 25.9695C86.0042 23.1209 87.6808 21.3308 90.2951 21.3308C92.9183 21.3308 94.587 23.1208 94.587 25.9695C94.587 28.8259 92.9271 30.6082 90.2951 30.6082C87.6641 30.6082 86.0042 28.8259 86.0042 25.9695ZM92.6948 25.9695C92.6948 24.0154 91.7999 22.8621 90.2951 22.8621C88.7903 22.8621 87.8964 24.0242 87.8964 25.9695C87.8964 27.9314 88.7903 29.0759 90.2951 29.0759C91.7999 29.0759 92.6948 27.9314 92.6948 25.9695H92.6948Z" fill="white"/>
<path d="M96.1182 21.4421H97.8894V22.9831H97.9324C98.0522 22.5019 98.3339 22.0765 98.7303 21.7786C99.1266 21.4808 99.6133 21.3285 100.109 21.3474C100.323 21.3467 100.536 21.3699 100.745 21.4167V23.155C100.475 23.0724 100.193 23.0345 99.9104 23.0427C99.6406 23.0318 99.3717 23.0794 99.122 23.1823C98.8723 23.2851 98.6479 23.4409 98.464 23.6388C98.2802 23.8367 98.1413 24.072 98.0569 24.3287C97.9726 24.5854 97.9447 24.8573 97.9753 25.1257V30.4958H96.1182L96.1182 21.4421Z" fill="white"/>
<path d="M109.307 27.8367C109.057 29.4802 107.458 30.6082 105.411 30.6082C102.78 30.6082 101.146 28.8435 101.146 26.0124C101.146 23.1726 102.788 21.3308 105.333 21.3308C107.837 21.3308 109.411 23.0515 109.411 25.7966V26.4333H103.021V26.5457C102.991 26.8789 103.033 27.2145 103.143 27.5304C103.253 27.8462 103.429 28.135 103.659 28.3775C103.889 28.6201 104.168 28.8108 104.478 28.9371C104.788 29.0634 105.12 29.1224 105.454 29.1101C105.893 29.1512 106.334 29.0495 106.71 28.8201C107.087 28.5907 107.379 28.2457 107.544 27.8367L109.307 27.8367ZM103.029 25.1345H107.553C107.569 24.8349 107.524 24.5351 107.419 24.2539C107.315 23.9727 107.153 23.7162 106.945 23.5004C106.736 23.2846 106.486 23.1143 106.208 23.0001C105.931 22.8859 105.633 22.8302 105.333 22.8367C105.031 22.8349 104.731 22.893 104.451 23.0078C104.172 23.1225 103.917 23.2916 103.703 23.5052C103.489 23.7188 103.319 23.9728 103.203 24.2524C103.088 24.5321 103.029 24.8319 103.029 25.1345V25.1345Z" fill="white"/>
<path d="M37.7995 8.73095C38.1888 8.70299 38.5795 8.76185 38.9434 8.90329C39.3072 9.04472 39.6352 9.2652 39.9036 9.54882C40.172 9.83245 40.3741 10.1721 40.4955 10.5434C40.6168 10.9147 40.6542 11.3083 40.6051 11.6958C40.6051 13.602 39.5756 14.6978 37.7995 14.6978H35.6458V8.73095H37.7995ZM36.5718 13.854H37.6961C37.9743 13.8706 38.2527 13.8249 38.511 13.7203C38.7694 13.6157 39.0012 13.4548 39.1896 13.2492C39.3779 13.0436 39.5181 12.7986 39.5999 12.532C39.6817 12.2654 39.7031 11.9839 39.6624 11.708C39.7001 11.4331 39.6766 11.1533 39.5935 10.8887C39.5105 10.624 39.3699 10.381 39.182 10.1771C38.9941 9.97316 38.7634 9.81335 38.5065 9.70911C38.2496 9.60488 37.9728 9.55879 37.6961 9.57416H36.5718V13.854Z" fill="white"/>
<path d="M41.6513 12.4443C41.623 12.1484 41.6568 11.8499 41.7506 11.5678C41.8444 11.2857 41.996 11.0264 42.1958 10.8064C42.3956 10.5864 42.6392 10.4107 42.9108 10.2904C43.1825 10.1701 43.4763 10.108 43.7733 10.108C44.0704 10.108 44.3642 10.1701 44.6358 10.2904C44.9075 10.4107 45.151 10.5864 45.3508 10.8064C45.5506 11.0264 45.7023 11.2857 45.796 11.5678C45.8898 11.8499 45.9236 12.1484 45.8954 12.4443C45.9242 12.7406 45.8908 13.0396 45.7972 13.3221C45.7037 13.6046 45.5521 13.8644 45.3523 14.0848C45.1524 14.3052 44.9087 14.4814 44.6368 14.6019C44.3649 14.7225 44.0707 14.7847 43.7733 14.7847C43.4759 14.7847 43.1818 14.7225 42.9098 14.6019C42.6379 14.4814 42.3942 14.3052 42.1943 14.0848C41.9945 13.8644 41.8429 13.6046 41.7494 13.3221C41.6559 13.0396 41.6224 12.7406 41.6513 12.4443ZM44.9819 12.4443C44.9819 11.4683 44.5438 10.8975 43.7748 10.8975C43.0029 10.8975 42.5686 11.4683 42.5686 12.4444C42.5686 13.4282 43.0029 13.9946 43.7748 13.9946C44.5438 13.9946 44.9819 13.4243 44.9819 12.4443H44.9819Z" fill="white"/>
<path d="M51.5369 14.6978H50.6157L49.6857 11.3813H49.6154L48.6893 14.6978H47.7768L46.5365 10.1948H47.4372L48.2433 13.6308H48.3097L49.2348 10.1948H50.0867L51.0119 13.6308H51.0821L51.8843 10.1948H52.7723L51.5369 14.6978Z" fill="white"/>
<path d="M53.8156 10.1949H54.6705V10.9102H54.7368C54.8494 10.6533 55.0393 10.4379 55.28 10.2941C55.5207 10.1503 55.8002 10.0852 56.0796 10.1079C56.2986 10.0915 56.5184 10.1245 56.7229 10.2046C56.9273 10.2847 57.1112 10.4098 57.2607 10.5707C57.4103 10.7315 57.5218 10.924 57.587 11.1338C57.6521 11.3436 57.6693 11.5654 57.6371 11.7827V14.6977H56.7491V12.0059C56.7491 11.2823 56.4349 10.9224 55.7781 10.9224C55.6294 10.9155 55.4811 10.9408 55.3431 10.9966C55.2051 11.0525 55.0809 11.1375 54.9788 11.2459C54.8768 11.3543 54.7993 11.4834 54.7518 11.6246C54.7043 11.7657 54.6879 11.9154 54.7037 12.0635V14.6978H53.8156L53.8156 10.1949Z" fill="white"/>
<path d="M59.052 8.43701H59.9407V14.6978H59.052V8.43701Z" fill="white"/>
<path d="M61.1747 12.4443C61.1464 12.1484 61.1803 11.8498 61.2741 11.5677C61.3679 11.2856 61.5195 11.0263 61.7194 10.8063C61.9192 10.5863 62.1627 10.4105 62.4344 10.2903C62.7061 10.17 62.9999 10.1078 63.297 10.1078C63.5941 10.1078 63.8879 10.17 64.1595 10.2903C64.4312 10.4105 64.6748 10.5863 64.8746 10.8063C65.0744 11.0263 65.2261 11.2856 65.3199 11.5677C65.4137 11.8498 65.4475 12.1484 65.4193 12.4443C65.448 12.7405 65.4146 13.0395 65.321 13.3221C65.2275 13.6046 65.0759 13.8644 64.876 14.0848C64.6761 14.3052 64.4324 14.4813 64.1605 14.6019C63.8885 14.7224 63.5944 14.7847 63.297 14.7847C62.9996 14.7847 62.7054 14.7224 62.4335 14.6019C62.1615 14.4813 61.9178 14.3052 61.7179 14.0848C61.518 13.8644 61.3665 13.6046 61.2729 13.3221C61.1794 13.0395 61.1459 12.7405 61.1747 12.4443ZM64.5053 12.4443C64.5053 11.4682 64.0672 10.8974 63.2982 10.8974C62.5263 10.8974 62.092 11.4682 62.092 12.4443C62.092 13.4282 62.5263 13.9946 63.2982 13.9946C64.0672 13.9946 64.5053 13.4243 64.5053 12.4443H64.5053Z" fill="white"/>
<path d="M66.3541 13.4244C66.3541 12.6138 66.9572 12.1465 68.0277 12.0801L69.2466 12.0098V11.6212C69.2466 11.1456 68.9323 10.877 68.3253 10.877C67.8296 10.877 67.4861 11.0591 67.3875 11.3775H66.5278C66.6185 10.6041 67.3456 10.108 68.3663 10.108C69.4944 10.108 70.1307 10.67 70.1307 11.6212V14.6978H69.2758V14.065H69.2056C69.063 14.292 68.8627 14.477 68.6252 14.6013C68.3878 14.7255 68.1216 14.7844 67.854 14.772C67.6651 14.7917 67.4742 14.7715 67.2935 14.7128C67.1129 14.6541 66.9466 14.5582 66.8052 14.4312C66.6639 14.3042 66.5508 14.149 66.4731 13.9756C66.3953 13.8022 66.3548 13.6144 66.3541 13.4244ZM69.2466 13.0396V12.6631L68.1477 12.7335C67.528 12.775 67.247 12.9859 67.247 13.3829C67.247 13.7881 67.5983 14.024 68.0814 14.024C68.2229 14.0383 68.3659 14.024 68.5018 13.9819C68.6377 13.9398 68.7638 13.8708 68.8725 13.779C68.9812 13.6871 69.0704 13.5743 69.1346 13.4473C69.1989 13.3203 69.2369 13.1816 69.2466 13.0396Z" fill="white"/>
<path d="M71.2979 12.4444C71.2979 11.0215 72.0288 10.1201 73.1657 10.1201C73.4469 10.1072 73.726 10.1746 73.9703 10.3145C74.2147 10.4544 74.4142 10.661 74.5456 10.9101H74.6119V8.43701H75.5V14.6978H74.649V13.9863H74.5787C74.4372 14.2338 74.2308 14.4378 73.9817 14.5763C73.7326 14.7148 73.4504 14.7825 73.1657 14.772C72.021 14.772 71.2979 13.8706 71.2979 12.4444ZM72.2152 12.4444C72.2152 13.3994 72.6651 13.9741 73.4175 13.9741C74.166 13.9741 74.6285 13.3911 74.6285 12.4483C74.6285 11.5098 74.1611 10.9185 73.4175 10.9185C72.6699 10.9185 72.2152 11.4971 72.2152 12.4444H72.2152Z" fill="white"/>
<path d="M79.1742 12.4443C79.1459 12.1484 79.1797 11.8499 79.2735 11.5678C79.3672 11.2857 79.5189 11.0264 79.7187 10.8064C79.9185 10.5864 80.162 10.4107 80.4337 10.2904C80.7054 10.1701 80.9991 10.108 81.2962 10.108C81.5933 10.108 81.887 10.1701 82.1587 10.2904C82.4304 10.4107 82.6739 10.5864 82.8737 10.8064C83.0735 11.0264 83.2251 11.2857 83.3189 11.5678C83.4127 11.8499 83.4465 12.1484 83.4182 12.4443C83.4471 12.7406 83.4136 13.0396 83.3201 13.3221C83.2266 13.6046 83.075 13.8644 82.8752 14.0848C82.6753 14.3052 82.4316 14.4814 82.1597 14.6019C81.8877 14.7225 81.5936 14.7847 81.2962 14.7847C80.9988 14.7847 80.7047 14.7225 80.4327 14.6019C80.1608 14.4814 79.9171 14.3052 79.7172 14.0848C79.5174 13.8644 79.3658 13.6046 79.2723 13.3221C79.1788 13.0396 79.1453 12.7406 79.1742 12.4443ZM82.5048 12.4443C82.5048 11.4683 82.0666 10.8975 81.2977 10.8975C80.5257 10.8975 80.0915 11.4683 80.0915 12.4444C80.0915 13.4282 80.5258 13.9946 81.2977 13.9946C82.0667 13.9946 82.5048 13.4243 82.5048 12.4443Z" fill="white"/>
<path d="M84.6097 10.1949H85.4645V10.9102H85.5309C85.6435 10.6533 85.8334 10.4379 86.0741 10.2941C86.3148 10.1503 86.5943 10.0852 86.8737 10.1079C87.0927 10.0915 87.3125 10.1245 87.517 10.2046C87.7214 10.2847 87.9052 10.4098 88.0548 10.5707C88.2044 10.7315 88.3159 10.924 88.381 11.1338C88.4462 11.3436 88.4633 11.5654 88.4312 11.7827V14.6977H87.5432V12.0059C87.5432 11.2823 87.2289 10.9224 86.5722 10.9224C86.4235 10.9155 86.2751 10.9408 86.1372 10.9966C85.9992 11.0525 85.8749 11.1375 85.7729 11.2459C85.6708 11.3543 85.5934 11.4834 85.5459 11.6246C85.4984 11.7657 85.482 11.9154 85.4977 12.0635V14.6978H84.6097V10.1949Z" fill="white"/>
<path d="M93.4493 9.07373V10.2153H94.4242V10.9639H93.4493V13.2793C93.4493 13.751 93.6435 13.9575 94.0856 13.9575C94.1988 13.9572 94.3118 13.9503 94.4242 13.937V14.6772C94.2647 14.7058 94.1032 14.721 93.9411 14.7226C92.9536 14.7226 92.5603 14.375 92.5603 13.5068V10.9638H91.8459V10.2153H92.5603V9.07373H93.4493Z" fill="white"/>
<path d="M95.6371 8.43701H96.5173V10.9185H96.5876C96.7056 10.6591 96.9007 10.4425 97.1462 10.2982C97.3918 10.1539 97.6758 10.0888 97.9596 10.1118C98.1774 10.1 98.3952 10.1364 98.5973 10.2184C98.7994 10.3004 98.981 10.4261 99.129 10.5864C99.277 10.7468 99.3878 10.9378 99.4536 11.146C99.5193 11.3541 99.5383 11.5742 99.5093 11.7905V14.6978H98.6204V12.0098C98.6204 11.2905 98.2856 10.9263 97.6582 10.9263C97.5055 10.9137 97.352 10.9347 97.2083 10.9878C97.0647 11.0408 96.9343 11.1247 96.8264 11.2334C96.7185 11.3421 96.6356 11.4732 96.5836 11.6173C96.5315 11.7614 96.5116 11.9152 96.5252 12.0679V14.6977H95.6371L95.6371 8.43701Z" fill="white"/>
<path d="M104.687 13.4819C104.567 13.8935 104.305 14.2495 103.949 14.4876C103.593 14.7258 103.164 14.8309 102.738 14.7847C102.441 14.7925 102.147 14.7357 101.874 14.6182C101.602 14.5006 101.359 14.3252 101.161 14.1041C100.963 13.8829 100.816 13.6214 100.729 13.3376C100.642 13.0537 100.619 12.7544 100.659 12.4605C100.62 12.1656 100.644 11.8656 100.73 11.581C100.817 11.2963 100.963 11.0335 101.16 10.8105C101.357 10.5874 101.599 10.4092 101.871 10.288C102.142 10.1668 102.436 10.1054 102.734 10.1079C103.986 10.1079 104.741 10.9639 104.741 12.3779V12.688H101.564V12.7378C101.55 12.9031 101.571 13.0694 101.625 13.2261C101.679 13.3829 101.765 13.5266 101.878 13.6481C101.991 13.7695 102.128 13.866 102.28 13.9314C102.432 13.9968 102.596 14.0297 102.762 14.0278C102.975 14.0533 103.19 14.0151 103.38 13.9179C103.571 13.8206 103.728 13.6689 103.833 13.4819L104.687 13.4819ZM101.564 12.0308H103.837C103.848 11.8796 103.827 11.7278 103.776 11.5851C103.725 11.4424 103.645 11.3119 103.541 11.2021C103.437 11.0922 103.31 11.0054 103.171 10.9472C103.031 10.8891 102.88 10.8608 102.729 10.8643C102.575 10.8623 102.423 10.8912 102.281 10.9491C102.138 11.0071 102.009 11.0929 101.901 11.2017C101.792 11.3104 101.706 11.4397 101.648 11.5821C101.59 11.7245 101.562 11.8771 101.564 12.0308H101.564Z" fill="white"/>
</g>
<defs>
<clipPath id="clip0_1005_4736">
<rect width="132" height="40" fill="white"/>
</clipPath>
</defs>
</svg>
